<svg xmlns="http://www.w3.org/2000/svg" xmlns:svg="http://www.w3.org/2000/svg" id="svg5371" width="36" height="12" version="1.1"><metadata id="metadata5376"/><g id="layer1" transform="translate(-213,-371.36218)"><g id="roadblock1"><rect id="rect5417" width="12" height="12" x="213" y="371.362" rx="0" ry="0" style="color:#000;fill:none;stroke:none;stroke-width:1;marker:none;visibility:visible;display:inline;overflow:visible;enable-background:accumulate"/><path style="opacity:.5;color:#000;fill:none;stroke:#fff;stroke-width:1;stroke-linecap:round;stroke-linejoin:round;stroke-miterlimit:4;stroke-opacity:1;stroke-dasharray:none;stroke-dashoffset:0;marker:none;visibility:visible;display:inline;overflow:visible;enable-background:accumulate" id="path6252" d="m 219.375,373.36218 c -0.1162,0 -0.22631,0.14316 -0.28125,0.29407 l -0.625,1.71875 -2.96875,0 c -0.277,0 -0.5,0.223 -0.5,0.5 0,0.277 0.223,0.5 0.5,0.5 l 2.59375,0 -0.34375,1 -2.25,0 c -0.277,0 -0.5,0.223 -0.5,0.5 0,0.277 0.223,0.5 0.5,0.5 l 1.875,0 -0.34375,0.9375 c -0.10988,0.30181 0.024,0.7115 0.25,0.9375 0.0652,0.0652 0.20812,0.11218 0.30804,0.11218 0.13469,0 0.25381,-0.095 0.31696,-0.26843 l 0.625,-1.71875 2.96875,0 c 0.277,0 0.5,-0.223 0.5,-0.5 0,-0.277 -0.223,-0.5 -0.5,-0.5 l -2.59375,0 0.34375,-1 2.25,0 c 0.277,0 0.5,-0.223 0.5,-0.5 0,-0.277 -0.223,-0.5 -0.5,-0.5 l -1.875,0 0.34375,-0.9375 c 0.10988,-0.30181 -0.0143,-0.72164 -0.25,-0.9375 -0.11788,-0.10793 -0.21877,-0.13782 -0.34375,-0.13782 z"/><path id="rect7723" d="m 219.375,373.36218 c -0.1162,0 -0.22631,0.14316 -0.28125,0.29407 l -0.625,1.71875 -2.96875,0 c -0.277,0 -0.5,0.223 -0.5,0.5 0,0.277 0.223,0.5 0.5,0.5 l 2.59375,0 -0.34375,1 -2.25,0 c -0.277,0 -0.5,0.223 -0.5,0.5 0,0.277 0.223,0.5 0.5,0.5 l 1.875,0 -0.34375,0.9375 c -0.10988,0.30181 0.024,0.7115 0.25,0.9375 0.0652,0.0652 0.20812,0.11218 0.30804,0.11218 0.13469,0 0.25381,-0.095 0.31696,-0.26843 l 0.625,-1.71875 2.96875,0 c 0.277,0 0.5,-0.223 0.5,-0.5 0,-0.277 -0.223,-0.5 -0.5,-0.5 l -2.59375,0 0.34375,-1 2.25,0 c 0.277,0 0.5,-0.223 0.5,-0.5 0,-0.277 -0.223,-0.5 -0.5,-0.5 l -1.875,0 0.34375,-0.9375 c 0.10988,-0.30181 -0.0143,-0.72164 -0.25,-0.9375 -0.11788,-0.10793 -0.21877,-0.13782 -0.34375,-0.13782 z" style="color:#000;fill:#615952;fill-opacity:1;fill-rule:nonzero;stroke:none;stroke-width:1;marker:none;visibility:visible;display:inline;overflow:visible;enable-background:accumulate"/></g><g id="roadblock2" transform="translate(2,0)"><rect style="color:#000;fill:none;stroke:none;stroke-width:1;marker:none;visibility:visible;display:inline;overflow:visible;enable-background:accumulate" id="rect5419" width="12" height="12" x="223" y="371.362" rx="0" ry="0"/><path style="opacity:.5;color:#000;fill:none;stroke:#fff;stroke-width:1;stroke-linecap:round;stroke-linejoin:round;stroke-miterlimit:4;stroke-opacity:1;stroke-dasharray:none;stroke-dashoffset:0;marker:none;visibility:visible;display:inline;overflow:visible;enable-background:accumulate" id="path6244" d="m 228.5,373.36218 c -1.93299,0 -3.5,1.56701 -3.5,3.5 0,1.93299 1.56701,3.5 3.5,3.5 1.93299,0 3.5,-1.56701 3.5,-3.5 0,-1.93299 -1.56701,-3.5 -3.5,-3.5 z m -2,3 4,0 c 0.277,0 0.5,0.223 0.5,0.5 0,0.277 -0.223,0.5 -0.5,0.5 l -4,0 c -0.277,0 -0.5,-0.223 -0.5,-0.5 0,-0.277 0.223,-0.5 0.5,-0.5 z"/><path id="path7731" d="m 228.5,373.36218 c -1.93299,0 -3.5,1.56701 -3.5,3.5 0,1.93299 1.56701,3.5 3.5,3.5 1.93299,0 3.5,-1.56701 3.5,-3.5 0,-1.93299 -1.56701,-3.5 -3.5,-3.5 z m -2,3 4,0 c 0.277,0 0.5,0.223 0.5,0.5 0,0.277 -0.223,0.5 -0.5,0.5 l -4,0 c -0.277,0 -0.5,-0.223 -0.5,-0.5 0,-0.277 0.223,-0.5 0.5,-0.5 z" style="color:#000;fill:#615952;fill-opacity:1;fill-rule:nonzero;stroke:none;stroke-width:1;marker:none;visibility:visible;display:inline;overflow:visible;enable-background:accumulate"/></g><g id="roadblock3" transform="translate(4,0)"><path style="opacity:.5;color:#000;fill:none;stroke:#fff;stroke-width:1;stroke-linecap:round;stroke-linejoin:round;marker:none;visibility:visible;display:inline;overflow:visible;enable-background:accumulate" id="path5461" d="m 235,373.36218 c -0.554,0 -1,0.446 -1,1 l 0,7 3,0 0,-6 6.5,0 c 0.277,0 0.5,-0.223 0.5,-0.5 0,-0.277 -0.223,-0.5 -0.5,-0.5 l -6.5,0 c 0,-0.554 -0.446,-1 -1,-1 z"/><rect id="rect5421" width="12" height="12" x="233" y="371.362" rx="0" ry="0" style="color:#000;fill:none;stroke:none;stroke-width:1;marker:none;visibility:visible;display:inline;overflow:visible;enable-background:accumulate"/><path id="rect5296" d="m 235,373.36218 c -0.554,0 -1,0.446 -1,1 l 0,7 3,0 0,-6 6.5,0 c 0.277,0 0.5,-0.223 0.5,-0.5 0,-0.277 -0.223,-0.5 -0.5,-0.5 l -6.5,0 c 0,-0.554 -0.446,-1 -1,-1 z" style="color:#000;fill:#615952;fill-opacity:1;fill-rule:nonzero;stroke:none;stroke-width:1;marker:none;visibility:visible;display:inline;overflow:visible;enable-background:accumulate"/></g></g></svg>